<svg width="111" height="19" viewBox="0 0 111 19" fill="none" xmlns="http://www.w3.org/2000/svg">
<mask id="path-1-outside-1_41_22" maskUnits="userSpaceOnUse" x="0" y="0" width="111" height="19" fill="black">
<rect fill="white" width="111" height="19"/>
<path fill-rule="evenodd" clip-rule="evenodd" d="M3.88511 17.3415H1L2.99216 12.1981L14.3278 12.1981L16.3272 17.3415H13.3519L12.2024 14.2535H5.03465L3.88511 17.3415ZM6.99033 8.97808H4.23934L7.19848 1.3381H10.1061L13.076 8.97808H10.2467L8.64104 4.71909H8.59596L6.99033 8.97808ZM15.7011 9.31724C15.7011 4.40353 19.0371 1 23.7028 1C27.6699 1 30.7353 3.36669 31.389 7.17594H28.4813C27.9403 4.92195 26.1146 3.61463 23.7028 3.61463C20.5022 3.61463 18.5863 5.86863 18.5863 9.31724C18.5863 12.7659 20.5022 15.0424 23.7028 15.0424C26.1146 15.0424 27.9403 13.7351 28.4813 11.4811H31.389C30.7353 15.2903 27.6699 17.657 23.7028 17.657C19.0371 17.657 15.7011 14.2535 15.7011 9.31724ZM31.8973 9.31724C31.8973 4.40353 35.2332 1 39.899 1C43.866 1 46.9315 3.36669 47.5851 7.17594H44.6775C44.1365 4.92195 42.3108 3.61463 39.899 3.61463C36.6983 3.61463 34.7824 5.86863 34.7824 9.31724C34.7824 12.7659 36.6983 15.0424 39.899 15.0424C42.3108 15.0424 44.1365 13.7351 44.6775 11.4811H47.5851C46.9315 15.2903 43.866 17.657 39.899 17.657C35.2332 17.657 31.8973 14.2535 31.8973 9.31724ZM60.4621 14.817V17.3415H49.2147V1.3381H60.4621V3.86257H51.942V7.96484H60.079V10.4893H51.942V14.817H60.4621ZM72.5603 14.817V17.3415H62.4173V1.3381H65.1446V14.817H72.5603ZM81.6053 1.3381V3.93019H76.9621V17.3415H74.2347V3.93019H69.5915V1.3381H81.6053ZM94.6728 17.3415H92.1742L88.9285 11.0303H85.2545V17.3415H82.5272V1.3381H89.5596C93.0984 1.3381 94.834 3.38923 94.834 6.18419C94.834 8.30294 93.8197 10.016 91.7009 10.6922L94.9622 16.5945L96.665 12.1981L108.001 12.1981L110 17.3415H107.025L105.875 14.2535H98.7075L97.558 17.3415H95.3749H94.6728ZM106.749 8.97808L103.779 1.3381H100.871L97.9122 8.97808H100.663L102.269 4.71909H102.314L103.92 8.97808H106.749ZM92.0841 6.18419C92.0841 4.80925 91.2727 3.86257 89.5822 3.86257H85.2545V8.5058H89.5822C91.2727 8.5058 92.0841 7.55912 92.0841 6.18419Z"/>
</mask>
<path fill-rule="evenodd" clip-rule="evenodd" d="M3.88511 17.3415H1L2.99216 12.1981L14.3278 12.1981L16.3272 17.3415H13.3519L12.2024 14.2535H5.03465L3.88511 17.3415ZM6.99033 8.97808H4.23934L7.19848 1.3381H10.1061L13.076 8.97808H10.2467L8.64104 4.71909H8.59596L6.99033 8.97808ZM15.7011 9.31724C15.7011 4.40353 19.0371 1 23.7028 1C27.6699 1 30.7353 3.36669 31.389 7.17594H28.4813C27.9403 4.92195 26.1146 3.61463 23.7028 3.61463C20.5022 3.61463 18.5863 5.86863 18.5863 9.31724C18.5863 12.7659 20.5022 15.0424 23.7028 15.0424C26.1146 15.0424 27.9403 13.7351 28.4813 11.4811H31.389C30.7353 15.2903 27.6699 17.657 23.7028 17.657C19.0371 17.657 15.7011 14.2535 15.7011 9.31724ZM31.8973 9.31724C31.8973 4.40353 35.2332 1 39.899 1C43.866 1 46.9315 3.36669 47.5851 7.17594H44.6775C44.1365 4.92195 42.3108 3.61463 39.899 3.61463C36.6983 3.61463 34.7824 5.86863 34.7824 9.31724C34.7824 12.7659 36.6983 15.0424 39.899 15.0424C42.3108 15.0424 44.1365 13.7351 44.6775 11.4811H47.5851C46.9315 15.2903 43.866 17.657 39.899 17.657C35.2332 17.657 31.8973 14.2535 31.8973 9.31724ZM60.4621 14.817V17.3415H49.2147V1.3381H60.4621V3.86257H51.942V7.96484H60.079V10.4893H51.942V14.817H60.4621ZM72.5603 14.817V17.3415H62.4173V1.3381H65.1446V14.817H72.5603ZM81.6053 1.3381V3.93019H76.9621V17.3415H74.2347V3.93019H69.5915V1.3381H81.6053ZM94.6728 17.3415H92.1742L88.9285 11.0303H85.2545V17.3415H82.5272V1.3381H89.5596C93.0984 1.3381 94.834 3.38923 94.834 6.18419C94.834 8.30294 93.8197 10.016 91.7009 10.6922L94.9622 16.5945L96.665 12.1981L108.001 12.1981L110 17.3415H107.025L105.875 14.2535H98.7075L97.558 17.3415H95.3749H94.6728ZM106.749 8.97808L103.779 1.3381H100.871L97.9122 8.97808H100.663L102.269 4.71909H102.314L103.92 8.97808H106.749ZM92.0841 6.18419C92.0841 4.80925 91.2727 3.86257 89.5822 3.86257H85.2545V8.5058H89.5822C91.2727 8.5058 92.0841 7.55912 92.0841 6.18419Z" fill="white"/>
<path d="M1 17.3415L0.499561 17.1476L0.216622 17.8781H1V17.3415ZM3.88511 17.3415V17.8781H4.25798L4.38806 17.5287L3.88511 17.3415ZM2.99216 12.1981V11.6614H2.6245L2.49172 12.0042L2.99216 12.1981ZM14.3278 12.1981L14.828 12.0036L14.6949 11.6614H14.3278V12.1981ZM16.3272 17.3415V17.8781H17.1116L16.8274 17.147L16.3272 17.3415ZM13.3519 17.3415L12.8489 17.5287L12.979 17.8781H13.3519V17.3415ZM12.2024 14.2535L12.7053 14.0663L12.5752 13.7168H12.2024V14.2535ZM5.03465 14.2535V13.7168H4.66179L4.5317 14.0663L5.03465 14.2535ZM4.23934 8.97808L3.7389 8.78425L3.45596 9.51475H4.23934V8.97808ZM6.99033 8.97808V9.51475H7.36155L7.4925 9.1674L6.99033 8.97808ZM7.19848 1.3381V0.801433H6.83083L6.69805 1.14427L7.19848 1.3381ZM10.1061 1.3381L10.6063 1.14365L10.4733 0.801433H10.1061V1.3381ZM13.076 8.97808V9.51475H13.8605L13.5762 8.78364L13.076 8.97808ZM10.2467 8.97808L9.7445 9.1674L9.87545 9.51475H10.2467V8.97808ZM8.64104 4.71909L9.14321 4.52978L9.01226 4.18243H8.64104V4.71909ZM8.59596 4.71909V4.18243H8.22475L8.0938 4.52978L8.59596 4.71909ZM31.389 7.17594V7.71261H32.0256L31.9179 7.08518L31.389 7.17594ZM28.4813 7.17594L27.9595 7.30119L28.0582 7.71261H28.4813V7.17594ZM28.4813 11.4811V10.9444H28.0582L27.9595 11.3558L28.4813 11.4811ZM31.389 11.4811L31.9179 11.5718L32.0256 10.9444H31.389V11.4811ZM47.5851 7.17594V7.71261H48.2217L48.1141 7.08518L47.5851 7.17594ZM44.6775 7.17594L44.1556 7.30119L44.2544 7.71261H44.6775V7.17594ZM44.6775 11.4811V10.9444H44.2544L44.1556 11.3558L44.6775 11.4811ZM47.5851 11.4811L48.1141 11.5718L48.2217 10.9444H47.5851V11.4811ZM60.4621 17.3415V17.8781H60.9988V17.3415H60.4621ZM60.4621 14.817H60.9988V14.2803H60.4621V14.817ZM49.2147 17.3415H48.678V17.8781H49.2147V17.3415ZM49.2147 1.3381V0.801433H48.678V1.3381H49.2147ZM60.4621 1.3381H60.9988V0.801433H60.4621V1.3381ZM60.4621 3.86257V4.39924H60.9988V3.86257H60.4621ZM51.942 3.86257V3.32591H51.4054V3.86257H51.942ZM51.942 7.96484H51.4054V8.50151H51.942V7.96484ZM60.079 7.96484H60.6156V7.42818H60.079V7.96484ZM60.079 10.4893V11.026H60.6156V10.4893H60.079ZM51.942 10.4893V9.95265H51.4054V10.4893H51.942ZM51.942 14.817H51.4054V15.3537H51.942V14.817ZM72.5603 17.3415V17.8781H73.0969V17.3415H72.5603ZM72.5603 14.817H73.0969V14.2803H72.5603V14.817ZM62.4173 17.3415H61.8806V17.8781H62.4173V17.3415ZM62.4173 1.3381V0.801433H61.8806V1.3381H62.4173ZM65.1446 1.3381H65.6813V0.801433H65.1446V1.3381ZM65.1446 14.817H64.608V15.3537H65.1446V14.817ZM81.6053 3.93019V4.46686H82.142V3.93019H81.6053ZM81.6053 1.3381H82.142V0.801433H81.6053V1.3381ZM76.9621 3.93019V3.39353H76.4254V3.93019H76.9621ZM76.9621 17.3415V17.8781H77.4987V17.3415H76.9621ZM74.2347 17.3415H73.6981V17.8781H74.2347V17.3415ZM74.2347 3.93019H74.7714V3.39353H74.2347V3.93019ZM69.5915 3.93019H69.0548V4.46686H69.5915V3.93019ZM69.5915 1.3381V0.801433H69.0548V1.3381H69.5915ZM92.1742 17.3415L91.697 17.5869L91.8468 17.8781H92.1742V17.3415ZM88.9285 11.0303L89.4057 10.7848L89.256 10.4936H88.9285V11.0303ZM85.2545 11.0303V10.4936H84.7178V11.0303H85.2545ZM85.2545 17.3415V17.8781H85.7912V17.3415H85.2545ZM82.5272 17.3415H81.9905V17.8781H82.5272V17.3415ZM82.5272 1.3381V0.801433H81.9905V1.3381H82.5272ZM91.7009 10.6922L91.5377 10.1809L90.9151 10.3796L91.2312 10.9517L91.7009 10.6922ZM94.9622 16.5945L94.4924 16.854L95.0478 17.8592L95.4626 16.7883L94.9622 16.5945ZM96.665 12.1981V11.6614H96.2973L96.1646 12.0042L96.665 12.1981ZM108.001 12.1981L108.501 12.0036L108.368 11.6614H108.001V12.1981ZM110 17.3415V17.8781H110.784L110.5 17.147L110 17.3415ZM107.025 17.3415L106.522 17.5287L106.652 17.8781H107.025V17.3415ZM105.875 14.2535L106.378 14.0663L106.248 13.7168H105.875V14.2535ZM98.7075 14.2535V13.7168H98.3346L98.2045 14.0663L98.7075 14.2535ZM97.558 17.3415V17.8781H97.9308L98.0609 17.5287L97.558 17.3415ZM106.749 8.97808V9.51475H107.533L107.249 8.78364L106.749 8.97808ZM103.779 1.3381L104.279 1.14365L104.146 0.801433H103.779V1.3381ZM100.871 1.3381V0.801433H100.504L100.371 1.14427L100.871 1.3381ZM97.9122 8.97808L97.4117 8.78425L97.1288 9.51475H97.9122V8.97808ZM100.663 8.97808V9.51475H101.034L101.165 9.1674L100.663 8.97808ZM102.269 4.71909V4.18243H101.898L101.767 4.52978L102.269 4.71909ZM102.314 4.71909L102.816 4.52978L102.685 4.18243H102.314V4.71909ZM103.92 8.97808L103.417 9.1674L103.548 9.51475H103.92V8.97808ZM85.2545 3.86257V3.32591H84.7178V3.86257H85.2545ZM85.2545 8.5058H84.7178V9.04247H85.2545V8.5058ZM1 17.8781H3.88511V16.8048H1V17.8781ZM2.49172 12.0042L0.499561 17.1476L1.50044 17.5353L3.49259 12.3919L2.49172 12.0042ZM14.3278 11.6614L2.99216 11.6614V12.7347L14.3278 12.7347V11.6614ZM16.8274 17.147L14.828 12.0036L13.8276 12.3925L15.827 17.5359L16.8274 17.147ZM13.3519 17.8781H16.3272V16.8048H13.3519V17.8781ZM11.6994 14.4407L12.8489 17.5287L13.8548 17.1542L12.7053 14.0663L11.6994 14.4407ZM5.03465 14.7902H12.2024V13.7168H5.03465V14.7902ZM4.38806 17.5287L5.5376 14.4407L4.5317 14.0663L3.38217 17.1542L4.38806 17.5287ZM4.23934 9.51475H6.99033V8.44142H4.23934V9.51475ZM6.69805 1.14427L3.7389 8.78425L4.73977 9.17192L7.69892 1.53193L6.69805 1.14427ZM10.1061 0.801433H7.19848V1.87476H10.1061V0.801433ZM13.5762 8.78364L10.6063 1.14365L9.60594 1.53254L12.5758 9.17253L13.5762 8.78364ZM10.2467 9.51475H13.076V8.44142H10.2467V9.51475ZM8.13888 4.90841L9.7445 9.1674L10.7488 8.78877L9.14321 4.52978L8.13888 4.90841ZM8.59596 5.25576H8.64104V4.18243H8.59596V5.25576ZM7.4925 9.1674L9.09813 4.90841L8.0938 4.52978L6.48817 8.78877L7.4925 9.1674ZM23.7028 0.463335C21.2349 0.463335 19.0919 1.36602 17.5666 2.94286C16.0423 4.51869 15.1645 6.73669 15.1645 9.31724H16.2378C16.2378 6.98408 17.028 5.04347 18.3381 3.6891C19.6472 2.33575 21.505 1.53667 23.7028 1.53667V0.463335ZM31.9179 7.08518C31.2155 2.99202 27.9036 0.463335 23.7028 0.463335V1.53667C27.4361 1.53667 30.2551 3.74137 30.86 7.26671L31.9179 7.08518ZM28.4813 7.71261H31.389V6.63928H28.4813V7.71261ZM23.7028 4.1513C25.8965 4.1513 27.4831 5.31657 27.9595 7.30119L29.0031 7.0507C28.3975 4.52733 26.3327 3.07797 23.7028 3.07797V4.1513ZM19.1229 9.31724C19.1229 7.68879 19.5748 6.40118 20.3464 5.52812C21.111 4.66303 22.2362 4.1513 23.7028 4.1513V3.07797C21.9687 3.07797 20.5357 3.69324 19.5422 4.8173C18.5557 5.93339 18.0496 7.49707 18.0496 9.31724H19.1229ZM23.7028 14.5057C22.238 14.5057 21.1127 13.9896 20.3474 13.1188C19.5748 12.2397 19.1229 10.9458 19.1229 9.31724H18.0496C18.0496 11.1373 18.5557 12.706 19.5412 13.8273C20.534 14.9569 21.967 15.5791 23.7028 15.5791V14.5057ZM27.9595 11.3558C27.4831 13.3404 25.8965 14.5057 23.7028 14.5057V15.5791C26.3327 15.5791 28.3975 14.1297 29.0031 11.6063L27.9595 11.3558ZM31.389 10.9444H28.4813V12.0177H31.389V10.9444ZM23.7028 18.1937C27.9036 18.1937 31.2155 15.665 31.9179 11.5718L30.86 11.3903C30.2551 14.9157 27.4361 17.1204 23.7028 17.1204V18.1937ZM15.1645 9.31724C15.1645 11.9084 16.0419 14.1321 17.5662 15.711C19.0916 17.291 21.2348 18.1937 23.7028 18.1937V17.1204C21.5051 17.1204 19.6474 16.3213 18.3384 14.9655C17.0284 13.6086 16.2378 11.6623 16.2378 9.31724H15.1645ZM39.899 0.463335C37.4311 0.463335 35.2881 1.36602 33.7628 2.94286C32.2385 4.51869 31.3607 6.73669 31.3607 9.31724H32.434C32.434 6.98408 33.2242 5.04347 34.5342 3.6891C35.8433 2.33575 37.7012 1.53667 39.899 1.53667V0.463335ZM48.1141 7.08518C47.4117 2.99202 44.0998 0.463335 39.899 0.463335V1.53667C43.6323 1.53667 46.4513 3.74137 47.0562 7.26671L48.1141 7.08518ZM44.6775 7.71261H47.5851V6.63928H44.6775V7.71261ZM39.899 4.1513C42.0927 4.1513 43.6793 5.31657 44.1556 7.30119L45.1993 7.0507C44.5937 4.52733 42.5288 3.07797 39.899 3.07797V4.1513ZM35.3191 9.31724C35.3191 7.68879 35.7709 6.40118 36.5426 5.52812C37.3072 4.66303 38.4324 4.1513 39.899 4.1513V3.07797C38.1649 3.07797 36.7319 3.69324 35.7384 4.8173C34.7519 5.93339 34.2458 7.49707 34.2458 9.31724H35.3191ZM39.899 14.5057C38.4341 14.5057 37.3089 13.9896 36.5436 13.1188C35.771 12.2397 35.3191 10.9458 35.3191 9.31724H34.2458C34.2458 11.1373 34.7518 12.706 35.7374 13.8273C36.7302 14.9569 38.1632 15.5791 39.899 15.5791V14.5057ZM44.1556 11.3558C43.6793 13.3404 42.0927 14.5057 39.899 14.5057V15.5791C42.5288 15.5791 44.5937 14.1297 45.1993 11.6063L44.1556 11.3558ZM47.5851 10.9444H44.6775V12.0177H47.5851V10.9444ZM39.899 18.1937C44.0998 18.1937 47.4117 15.665 48.1141 11.5718L47.0562 11.3903C46.4513 14.9157 43.6323 17.1204 39.899 17.1204V18.1937ZM31.3607 9.31724C31.3607 11.9084 32.2381 14.1321 33.7624 15.711C35.2878 17.291 37.431 18.1937 39.899 18.1937V17.1204C37.7012 17.1204 35.8436 16.3213 34.5346 14.9655C33.2246 13.6086 32.434 11.6623 32.434 9.31724H31.3607ZM60.9988 17.3415V14.817H59.9255V17.3415H60.9988ZM49.2147 17.8781H60.4621V16.8048H49.2147V17.8781ZM48.678 1.3381V17.3415H49.7514V1.3381H48.678ZM60.4621 0.801433H49.2147V1.87476H60.4621V0.801433ZM60.9988 3.86257V1.3381H59.9255V3.86257H60.9988ZM51.942 4.39924H60.4621V3.32591H51.942V4.39924ZM52.4787 7.96484V3.86257H51.4054V7.96484H52.4787ZM60.079 7.42818H51.942V8.50151H60.079V7.42818ZM60.6156 10.4893V7.96484H59.5423V10.4893H60.6156ZM51.942 11.026H60.079V9.95265H51.942V11.026ZM52.4787 14.817V10.4893H51.4054V14.817H52.4787ZM60.4621 14.2803H51.942V15.3537H60.4621V14.2803ZM73.0969 17.3415V14.817H72.0236V17.3415H73.0969ZM62.4173 17.8781H72.5603V16.8048H62.4173V17.8781ZM61.8806 1.3381V17.3415H62.954V1.3381H61.8806ZM65.1446 0.801433H62.4173V1.87476H65.1446V0.801433ZM65.6813 14.817V1.3381H64.608V14.817H65.6813ZM72.5603 14.2803H65.1446V15.3537H72.5603V14.2803ZM82.142 3.93019V1.3381H81.0686V3.93019H82.142ZM76.9621 4.46686H81.6053V3.39353H76.9621V4.46686ZM77.4987 17.3415V3.93019H76.4254V17.3415H77.4987ZM74.2347 17.8781H76.9621V16.8048H74.2347V17.8781ZM73.6981 3.93019V17.3415H74.7714V3.93019H73.6981ZM69.5915 4.46686H74.2347V3.39353H69.5915V4.46686ZM69.0548 1.3381V3.93019H70.1282V1.3381H69.0548ZM81.6053 0.801433H69.5915V1.87476H81.6053V0.801433ZM92.1742 17.8781H94.6728V16.8048H92.1742V17.8781ZM88.4512 11.2757L91.697 17.5869L92.6515 17.096L89.4057 10.7848L88.4512 11.2757ZM85.2545 11.5669H88.9285V10.4936H85.2545V11.5669ZM85.7912 17.3415V11.0303H84.7178V17.3415H85.7912ZM82.5272 17.8781H85.2545V16.8048H82.5272V17.8781ZM81.9905 1.3381V17.3415H83.0638V1.3381H81.9905ZM89.5596 0.801433H82.5272V1.87476H89.5596V0.801433ZM95.3706 6.18419C95.3706 4.67557 94.9002 3.31436 93.9002 2.33049C92.8999 1.3463 91.4327 0.801433 89.5596 0.801433V1.87476C91.2253 1.87476 92.3952 2.35547 93.1474 3.09558C93.9 3.83602 94.2973 4.89785 94.2973 6.18419H95.3706ZM91.8641 11.2034C93.0304 10.8312 93.9175 10.1633 94.5085 9.27683C95.0965 8.39486 95.3706 7.32824 95.3706 6.18419H94.2973C94.2973 7.15889 94.0643 8.00816 93.6154 8.68145C93.1696 9.35027 92.4901 9.87696 91.5377 10.1809L91.8641 11.2034ZM95.4319 16.3349L92.1706 10.4326L91.2312 10.9517L94.4924 16.854L95.4319 16.3349ZM96.1646 12.0042L94.4617 16.4006L95.4626 16.7883L97.1654 12.3919L96.1646 12.0042ZM108.001 11.6614L96.665 11.6614V12.7347L108.001 12.7347V11.6614ZM110.5 17.147L108.501 12.0036L107.5 12.3925L109.5 17.5359L110.5 17.147ZM107.025 17.8781H110V16.8048H107.025V17.8781ZM105.372 14.4407L106.522 17.5287L107.528 17.1542L106.378 14.0663L105.372 14.4407ZM98.7075 14.7902H105.875V13.7168H98.7075V14.7902ZM98.0609 17.5287L99.2104 14.4407L98.2045 14.0663L97.055 17.1542L98.0609 17.5287ZM95.3749 17.8781H97.558V16.8048H95.3749V17.8781ZM94.6728 17.8781H95.3749V16.8048H94.6728V17.8781ZM107.249 8.78364L104.279 1.14365L103.279 1.53254L106.249 9.17253L107.249 8.78364ZM103.779 0.801433H100.871V1.87476H103.779V0.801433ZM100.371 1.14427L97.4117 8.78425L98.4126 9.17192L101.372 1.53193L100.371 1.14427ZM97.9122 9.51475H100.663V8.44142H97.9122V9.51475ZM101.165 9.1674L102.771 4.90841L101.767 4.52978L100.161 8.78877L101.165 9.1674ZM102.269 5.25576H102.314V4.18243H102.269V5.25576ZM101.812 4.90841L103.417 9.1674L104.422 8.78877L102.816 4.52978L101.812 4.90841ZM103.92 9.51475H106.749V8.44142H103.92V9.51475ZM89.5822 4.39924C90.3286 4.39924 90.803 4.60655 91.0902 4.88985C91.3773 5.17307 91.5474 5.60127 91.5474 6.18419H92.6208C92.6208 5.39216 92.3851 4.65956 91.8439 4.12571C91.3028 3.59193 90.5262 3.32591 89.5822 3.32591V4.39924ZM85.2545 4.39924H89.5822V3.32591H85.2545V4.39924ZM85.7912 8.5058V3.86257H84.7178V8.5058H85.7912ZM89.5822 7.96914H85.2545V9.04247H89.5822V7.96914ZM91.5474 6.18419C91.5474 6.7671 91.3773 7.1953 91.0902 7.47852C90.803 7.76182 90.3286 7.96914 89.5822 7.96914V9.04247C90.5262 9.04247 91.3028 8.77644 91.8439 8.24267C92.3851 7.70881 92.6208 6.97621 92.6208 6.18419H91.5474Z" fill="white" mask="url(#path-1-outside-1_41_22)"/>
</svg>
